<svg version="1.1" viewBox="0 0 150.43 53.75" xml:space="preserve" xmlns="http://www.w3.org/2000/svg"><path d="m.80165 42.606v-31.416h14.099v3.4907h-10.019v9.8827h8.8853v3.4h-8.8853v14.643zm22.796 0h-3.944q-1.4053-4.6693-2.6747-10.744-1.224-6.0747-2.2667-13.056h3.8533q.18133 1.9493.544 4.5787.36267 2.584.77067 5.3493.45333 2.72.90667 5.304.45333 2.5387.86133 4.352.408-1.8133.90667-4.4427.544-2.6293 1.0427-5.3947.544-2.7653.99733-5.3493.45333-2.6293.72533-4.3973h3.672q.18133 1.768.544 4.352.408 2.584.816 5.3947.45333 2.7653.90667 5.3947.45333 2.6293.816 4.4427.408-1.8133.86133-4.3973.45333-2.584.86133-5.304.45333-2.72.816-5.304.36267-2.6293.544-4.5787h3.7173q-1.0427 6.9813-2.312 13.056-1.224 6.0747-2.6293 10.744h-3.808q-.36267-1.4053-.816-3.5813-.408-2.2213-.86133-4.7147-.408-2.4933-.77067-4.9867-.36267-2.5387-.63467-4.624-.272 2.0853-.72533 4.624-.45333 2.4933-.952 4.9867-.49867 2.4933-.99733 4.7147-.45333 2.176-.77067 3.5813zm19.895-10.744q.04533 1.7227.31733 3.1733.272 1.4053.86133 2.4933.63467 1.0427 1.632 1.632 1.0427.58933 2.6293.58933 1.3147 0 2.4027-.36267 1.1333-.408 1.632-.68l.72533 3.128q-.58933.408-1.9947.86133-1.36.49867-3.264.49867-2.4933 0-4.216-.90667-1.6773-.90667-2.7653-2.5387-1.0427-1.632-1.496-3.8987t-.45333-4.9867q0-6.5733 2.176-9.6107 2.176-3.0373 5.7573-3.0373 4.0347 0 5.712 3.0373 1.6773 3.0373 1.6773 8.5227 0 .49867 0 1.0427 0 .49867-.04533 1.0427zm3.944-10.336q-1.9493 0-2.856 1.9493-.86133 1.9493-1.0427 5.2133h7.208q0-3.3093-.68-5.2133-.68-1.9493-2.6293-1.9493zm13.321 10.336q.04533 1.7227.31733 3.1733.272 1.4053.86133 2.4933.63467 1.0427 1.632 1.632 1.0427.58933 2.6293.58933 1.3147 0 2.4027-.36267 1.1333-.408 1.632-.68l.72533 3.128q-.58933.408-1.9947.86133-1.36.49867-3.264.49867-2.4933 0-4.216-.90667-1.6773-.90667-2.7653-2.5387-1.0427-1.632-1.496-3.8987t-.45333-4.9867q0-6.5733 2.176-9.6107 2.176-3.0373 5.7573-3.0373 4.0347 0 5.712 3.0373 1.6773 3.0373 1.6773 8.5227 0 .49867 0 1.0427 0 .49867-.04533 1.0427zm3.944-10.336q-1.9493 0-2.856 1.9493-.86133 1.9493-1.0427 5.2133h7.208q0-3.3093-.68-5.2133-.68-1.9493-2.6293-1.9493zm26.332 21.08q-1.088-2.6747-2.4933-5.7573-1.36-3.128-2.9013-6.256-1.496-3.1733-3.0827-6.256-1.5867-3.128-3.128-5.8027v24.072h-3.808v-31.416h3.4q1.7227 2.8107 3.3093 5.7573 1.632 2.9467 3.0827 5.848 1.4507 2.856 2.72 5.6667 1.3147 2.7653 2.4027 5.2587v-22.531h3.808v31.416zm24.927-31.416q-.77067 2.1307-1.7227 4.5333-.90666 2.4027-1.9493 4.896-1.0427 2.448-2.1307 4.896t-2.176 4.6693v12.421h-4.08v-12.149q-1.088-2.2213-2.2213-4.7147-1.1333-2.4933-2.176-4.9867-1.0427-2.4933-1.9947-4.9413-.952-2.448-1.7227-4.624h4.3973q1.1787 3.5813 2.6747 7.5707 1.496 3.9893 3.0827 7.4347 1.5867-3.4453 3.0827-7.4347 1.496-3.9893 2.6747-7.5707zm9.3773 0q1.088 3.4 2.1307 6.8907 1.088 3.4453 2.0853 7.2533 1.0427 3.808 2.04 8.0693 1.0427 4.2613 2.0853 9.2027h-4.08q-.36267-2.04-.77067-4.0347-.36267-1.9947-.77067-3.9893h-9.8827q-.45333 1.9947-.816 3.9893-.36266 1.9947-.72533 4.0347h-3.944q.99734-4.9413 2.04-9.2027 1.0427-4.2613 2.04-8.0693 1.0427-3.808 2.0853-7.2533 1.088-3.4907 2.176-6.8907zm-2.2213 4.624q-1.1333 3.7627-2.176 7.5707-1.0427 3.808-1.9947 7.7973h8.296q-.90666-3.9893-1.9493-7.7973-1.0427-3.808-2.176-7.5707zm17.129 23.981q2.448 0 3.7627-1.36 1.36-1.36 1.36-3.672 0-1.224-.408-2.176t-1.088-1.7227q-.63467-.77067-1.496-1.4053-.86134-.63467-1.768-1.2693-1.0427-.72533-2.176-1.5413-1.1333-.816-2.0853-1.904-.90667-1.088-1.496-2.5387t-.58933-3.4q0-1.904.63466-3.4453.68-1.5413 1.8133-2.6293 1.1787-1.088 2.7653-1.6773 1.632-.58933 3.4907-.58933 1.8133 0 3.3547.45333 1.5413.45333 2.584 1.088l-1.2693 3.2187q-.952-.63467-2.0853-.952-1.088-.36267-2.312-.36267-2.2213 0-3.5813 1.224-1.3147 1.1787-1.3147 3.4907 0 1.2693.408 2.2213.45334.952 1.1333 1.7227.72534.77067 1.632 1.4053.952.63467 1.9947 1.3147 1.0427.68 2.1307 1.496 1.088.816 1.9493 1.904.90666 1.0427 1.4507 2.4933.58933 1.4053.58933 3.3547 0 1.768-.54399 3.3547-.544 1.5867-1.7227 2.8107-1.1333 1.1787-2.9013 1.904-1.7227.68-4.08.68-2.176 0-3.808-.49867t-2.9013-1.3147l1.2693-3.264q1.1787.72533 2.4027 1.1787 1.2693.408 2.9013.408z" aria-label="FweeNYAS"/></svg>
