<svg id="c" data-name="Prior to November" version="1.1" viewBox="0 0 800 800" xmlns="http://www.w3.org/2000/svg">
<path class="cls-2" d="m469.6 167.73c-166.8-1.8438-355.31 239.7-438 553.08 8.0751 2.9101 19.148 5.9218 31.277 8.9492 3.9165 2.379 8.1177 4.2538 12.504 5.5801 13.34 3.89 27.569 3.5706 41.299 2.8906 15.41-.77 30.85-1.4506 46.189-3.1406 15.91-1.74 31.76-4.5606 46.9-9.8906 15.623-5.4183 30.226-13.419 43.201-23.67 11.929-9.7409 21.824-21.735 29.119-35.299 14.679-27.477 22.278-58.179 22.109-89.33-.25-15.21-2.6686-30.58-8.0586-44.84-5.07-13.39-12.541-25.66-22.871-35.66-9.5224-9.357-21.111-16.345-33.83-20.4-12.21-3.77-25.629-4.2194-37.879-.35938-13.15 4.15-24.351 12.7-33.791 22.57-4.7962 5.018-9.2097 10.369-13.477 15.842 6.0013-13.226 12.274-26.612 19.088-40.514 34.06-69.49 206.53-356.12 378.16-100.92 24.69 36.71 32.271 82.611 40.551 126.39 9.2594 48.944 17.221 98.928 16.65 148.54-4.1021-9.164-7.8752-18.509-11.43-27.928-8.38-22.19-41.151-130.69-100.88-109.71-18.788 6.7554-35.514 18.246-48.561 33.359-30.081 34.458-46.536 78.72-46.27 124.46.1 19.62 3.2903 39.539 12.74 57.279 9.45 17.74 25.721 33.131 46.461 39.881 9.68 3.15 20 4.3693 30.34 4.7793 17.3.68 34.6-.86039 51.82-2.4004 38.51-3.43 77.569-7.0004 113.65-19.4 1.8205-.62528 3.7407-1.5834 5.3828-2.7305 36.439-10.257 66.974-24.055 88.068-42.479 10.06-9.15 19.64-18.691 18.24-32.221-5.84-56.82-52.911-228.43-84.701-305.88-56.253-136.98-132.54-195.93-214-196.83zm-199.34 202.62c-5.4112.24513-10.05 3.9449-11.492 9.166-.72 3.17-.59023 6.8309 1.2598 9.6308l13.111 19.779 6.5488 9.8906c1.3199 2.0179 2.7559 3.9573 4.3008 5.8086 2.3847 2.6637 5.4099 4.6744 8.7891 5.8418 1.2078.41004 2.4601.67493 3.7305.78906 1.2783.216 2.5762.29328 3.8711.23047 2.9312-.2627 5.8305-.80554 8.6582-1.6211 3.4667-.94 6.9183-1.94 10.352-3 7.16-2.2467 14.223-4.7734 21.189-7.5801 4.7733-1.92 9.5028-3.9386 14.189-6.0586 2.308-1.0502 4.5843-2.1774 6.8672-3.2832 1.1775 2.0596 2.2873 4.1685 3.4531 6.1934l6.6895 11.568 6.8105 11.801c2.69 4.64 5.821 9.0009 10.461 11.881 3.1881 1.9094 6.8234 2.9442 10.539 3 3.1256-.009 6.2125-.69105 9.0508-2 4.6636-2.0781 8.817-5.1497 12.17-9 2.89-3.19 5.5796-6.5906 8.3496-9.8906l8.8398-10.49 19.68-23.461c2.17-2.6 3.6602-5.3398 3.6602-8.8398-.0221-3.3109-1.3353-6.4824-3.6602-8.8398-2.3489-2.3376-5.526-3.653-8.8398-3.6602-3.15.14-6.7398 1.1502-8.8398 3.6602l-32.641 38.92-6.1289 7.1309-6.0898-9.7793-8.3008-14.361-4.0801-7.0801c-1.4508-2.8071-3.2812-5.4011-5.4395-7.709-2.0856-2.0102-4.5882-3.5366-7.3301-4.4707-.51095-.20274-1.04-.35643-1.5801-.45899-1.5612-.3533-3.1593-.51789-4.7598-.49023-4.2764.37289-8.4316 1.6151-12.211 3.6504-4.8809 2.3901-9.7963 4.6767-14.781 6.8223.54099-.22464 1.0912-.4243 1.6309-.65234l-3 1.2598c.46006-.19461.91047-.41 1.3691-.60742-6.1014 2.5336-12.275 4.8761-18.539 6.9766-3.41 1.15-6.8391 2.2202-10.289 3.2402-2.2054.67695-4.4408 1.2518-6.6992 1.7227-1.0479-1.564-2.0697-3.1468-3.1016-4.7129l-5.4902-8.2598-10.92-16.48c-1.7017-2.7643-4.3597-4.8071-7.4688-5.7402-1.2654-.34826-2.5776-.49524-3.8887-.43555zm395.76 91.768c26.5 1.562 50.354 22.893 58.584 52.387 10.242 36.707-6.8822 73.558-38.248 82.309-31.365 8.7506-65.093-13.911-75.334-50.617-10.241-36.706 6.883-73.556 38.248-82.307 5.4154-1.5108 11.056-2.1073 16.75-1.7715zm.0137 2.1387c-29.985-2e-4-54.293 28.081-54.293 62.721-.00014 34.64 24.308 62.721 54.293 62.721 29.985 2e-4 54.293-28.081 54.293-62.721.00013-34.64-24.308-62.721-54.293-62.721zm23.504 68.266c7.0748 1e-5 12.81 5.2885 12.811 11.812.00074 6.5247-5.735 11.814-12.811 11.814-7.0756-1e-5-12.811-5.2897-12.811-11.814.00044-6.524 5.7358-11.812 12.811-11.812z"/>
</svg>
